<?xml version="1.0" encoding="UTF-8"?>
<svg version="1.1" xmlns="http://www.w3.org/2000/svg" width="1024" height="338">
<path d="M0 0 C337.92 0 675.84 0 1024 0 C1024 111.54 1024 223.08 1024 338 C686.08 338 348.16 338 0 338 C0 226.46 0 114.92 0 0 Z " fill="#0D1523" transform="translate(0,0)"/>
<path d="M0 0 C1.68277284 1.51198395 3.34854476 3.04322438 4.9921875 4.59765625 C7.15197088 6.69247711 7.15197088 6.69247711 10.1171875 8.9140625 C14.67361298 12.98576187 18.31920989 17.71845495 22.0546875 22.5390625 C22.6425 23.28800781 23.2303125 24.03695312 23.8359375 24.80859375 C44.19037231 52.2198727 51.22328528 85.83690921 47.3671875 119.4140625 C43.44207556 144.04275782 33.18351059 167.50656324 17.0546875 186.5390625 C16.21292969 187.54453125 15.37117187 188.55 14.50390625 189.5859375 C-6.92333121 214.45132184 -37.68579968 228.50154476 -69.9453125 232.5390625 C-74.01308703 232.8143205 -78.05658014 232.87366198 -82.1328125 232.8515625 C-83.22070068 232.84664795 -84.30858887 232.8417334 -85.42944336 232.83666992 C-114.89062051 232.41228272 -143.86761908 221.04806994 -165.9453125 201.5390625 C-166.87214844 200.745 -167.79898438 199.9509375 -168.75390625 199.1328125 C-193.54819651 177.39912118 -209.5622342 145.47018953 -211.9453125 112.5390625 C-213.693136 76.86484359 -205.31254838 43.15595458 -181.1953125 16.0390625 C-179.78813282 14.53015899 -178.37293799 13.02863623 -176.9453125 11.5390625 C-175.73875 10.270625 -175.73875 10.270625 -174.5078125 8.9765625 C-173.6621875 8.1721875 -172.8165625 7.3678125 -171.9453125 6.5390625 C-171.28660156 5.89710937 -170.62789062 5.25515625 -169.94921875 4.59375 C-124.16073711 -38.56320971 -48.18392094 -40.25977479 0 0 Z " fill="#107BFE" transform="translate(297.9453125,57.4609375)"/>
<path d="M0 0 C2 3 2 3 1.85473633 5.51879883 C0.6642151 10.36759696 -0.9867723 15.00404236 -2.67578125 19.69921875 C-3.04221237 20.73005081 -3.40864349 21.76088287 -3.78617859 22.82295227 C-4.95693186 26.11282724 -6.13464728 29.40016101 -7.3125 32.6875 C-8.09355037 34.87939649 -8.87415394 37.07145224 -9.65429688 39.26367188 C-13.0708807 48.85420086 -16.51216701 58.4351324 -20 68 C-18.25928223 67.9685791 -18.25928223 67.9685791 -16.48339844 67.93652344 C-12.17476762 67.86408193 -7.86619055 67.81818529 -3.55712891 67.78027344 C-1.69277899 67.76016739 0.17150794 67.7328782 2.03564453 67.69824219 C4.71662948 67.64967879 7.39678023 67.62702162 10.078125 67.609375 C10.91055725 67.58872986 11.7429895 67.56808472 12.60064697 67.54681396 C16.31150265 67.54537754 18.38604938 67.60406163 21.55761719 69.64941406 C23.44064684 72.71810219 23.37926223 74.4371145 23 78 C21.35314941 80.44934082 21.35314941 80.44934082 19.07226562 82.79882812 C18.24702393 83.6612915 17.42178223 84.52375488 16.5715332 85.41235352 C15.72292725 86.26627686 14.87432129 87.1202002 14 88 C13.25000732 88.76948975 12.50001465 89.53897949 11.72729492 90.33178711 C9.45156017 92.64703896 7.15153552 94.93546604 4.84375 97.21875 C4.01540649 98.04330688 3.18706299 98.86786377 2.33361816 99.71740723 C-0.2751375 102.3140836 -2.88715091 104.90744301 -5.5 107.5 C-8.9715973 110.94506763 -12.43990505 114.39339859 -15.90625 117.84375 C-16.70405884 118.6332605 -17.50186768 119.422771 -18.32385254 120.23620605 C-19.05551636 120.96456665 -19.78718018 121.69292725 -20.54101562 122.44335938 C-21.18671509 123.08382202 -21.83241455 123.72428467 -22.49768066 124.38415527 C-24.08931016 125.94403548 -24.08931016 125.94403548 -25 128 C-25.66 128 -26.32 128 -27 128 C-27.36798706 128.85803223 -27.36798706 128.85803223 -27.7434082 129.73339844 C-29.21475473 132.38736797 -30.93552401 134.14499183 -33.10546875 136.265625 C-33.92466797 137.07386719 -34.74386719 137.88210937 -35.58789062 138.71484375 C-36.87469727 139.96974609 -36.87469727 139.96974609 -38.1875 141.25 C-43.48383936 146.43642302 -48.6831261 151.5931454 -53.4230957 157.29980469 C-55.16837477 159.18153923 -56.81867315 160.64142442 -59 162 C-65.32727273 161.67272727 -65.32727273 161.67272727 -68 159 C-68.88140535 152.99303093 -66.33154974 147.70246599 -64.25 142.1875 C-63.43212533 139.97141555 -62.61442683 137.75526607 -61.796875 135.5390625 C-61.35150391 134.3418457 -60.90613281 133.14462891 -60.44726562 131.91113281 C-58.86364106 127.644402 -57.31342855 123.36576919 -55.765625 119.0859375 C-55.21842707 117.57397367 -54.67122655 116.06201078 -54.12402344 114.55004883 C-53.85521362 113.80719635 -53.58640381 113.06434387 -53.30944824 112.29898071 C-52.01057645 108.71023772 -50.71034975 105.12200305 -49.40625 101.53515625 C-48.96603516 100.322229 -48.52582031 99.10930176 -48.07226562 97.85961914 C-47 95 -47 95 -46 93 C-47.59654419 93.02356567 -47.59654419 93.02356567 -49.2253418 93.04760742 C-53.18555086 93.10203054 -57.14572704 93.13639493 -61.10620117 93.16479492 C-62.81817184 93.1798534 -64.53010411 93.20030455 -66.24194336 93.22631836 C-68.70696505 93.2628319 -71.17147535 93.27975562 -73.63671875 93.29296875 C-74.77919319 93.31619453 -74.77919319 93.31619453 -75.94474792 93.33988953 C-80.481983 93.34131672 -83.40386417 92.83257569 -87 90 C-88.49732906 87.00534188 -88.48620676 85.34245718 -88 82 C-86.07155481 79.23817293 -83.68231433 77.00898656 -81.24609375 74.6953125 C-80.55242203 74.01250214 -79.85875031 73.32969177 -79.14405823 72.62619019 C-76.92226058 70.44454992 -74.68090806 68.2843916 -72.4375 66.125 C-70.22343071 63.96866804 -68.01363077 61.8080772 -65.80592346 59.64523315 C-64.43255723 58.30254547 -63.05484642 56.96428121 -61.67198181 55.63137817 C-57.7720026 51.84984603 -54.13172432 47.9353294 -50.58778381 43.81881714 C-48.55051707 41.48511425 -46.39443276 39.29809563 -44.1875 37.125 C-43.33929688 36.28453125 -42.49109375 35.4440625 -41.6171875 34.578125 C-39.87239583 32.859375 -38.12760417 31.140625 -36.3828125 29.421875 C-31.96564795 25.04498855 -27.71454508 20.61769702 -23.66650391 15.89794922 C-20.81310192 12.64826463 -17.75419753 9.60943363 -14.6875 6.5625 C-14.06810547 5.93923828 -13.44871094 5.31597656 -12.81054688 4.67382812 C-12.21693359 4.08150391 -11.62332031 3.48917969 -11.01171875 2.87890625 C-10.21447388 2.08335327 -10.21447388 2.08335327 -9.40112305 1.27172852 C-6.24293967 -1.59479478 -3.98635644 -0.99658911 0 0 Z " fill="#FCFDFE" transform="translate(249,78)"/>
<path d="M0 0 C11.37733335 8.01812069 18.59376662 17.81185777 21.91015625 31.37890625 C23.26239422 45.17173353 20.71425286 57.61148057 12.47265625 68.98046875 C7.80256886 74.61093701 2.75725453 78.33349973 -3.77734375 81.56640625 C-4.56238281 81.98019531 -5.34742188 82.39398438 -6.15625 82.8203125 C-16.32634323 87.38810085 -30.42943885 87.47797376 -40.96484375 83.94140625 C-54.25963031 78.00029851 -63.2987925 69.08830821 -68.77734375 55.56640625 C-72.46880317 44.79543562 -72.28478534 31.83786678 -68.09765625 21.23828125 C-61.44307764 7.77161922 -51.65847144 -0.06325118 -37.77734375 -5.43359375 C-25.95168544 -9.34388157 -10.41573829 -6.33261765 0 0 Z " fill="#FCFCFC" transform="translate(536.77734375,129.43359375)"/>
<path d="M0 0 C7.92 0 15.84 0 24 0 C26.61671425 5.88760706 29.14687241 11.74433696 31.49609375 17.734375 C31.81151627 18.53425842 32.12693878 19.33414185 32.45191956 20.15826416 C33.44893759 22.68812868 34.44320396 25.21906464 35.4375 27.75 C36.09944221 29.42975338 36.76155044 31.10944136 37.42382812 32.7890625 C40.99094229 41.84355788 44.52685183 50.90897578 48 60 C48.19956299 59.25983643 48.39912598 58.51967285 48.60473633 57.75708008 C51.59340351 46.97570449 55.10492835 36.3803133 58.65551758 25.77270508 C59.70001224 22.65009353 60.73795811 19.52535465 61.77539062 16.40039062 C62.4371145 14.41653804 63.09920977 12.43280929 63.76171875 10.44921875 C64.07211594 9.51397873 64.38251312 8.57873871 64.70231628 7.61515808 C65.13330376 6.33165215 65.13330376 6.33165215 65.57299805 5.0222168 C65.825186 4.26724411 66.07737396 3.51227142 66.33720398 2.73442078 C67 1 67 1 68 0 C69.78071246 -0.08726223 71.5648314 -0.10699041 73.34765625 -0.09765625 C74.42724609 -0.09443359 75.50683594 -0.09121094 76.61914062 -0.08789062 C78.32360352 -0.07532227 78.32360352 -0.07532227 80.0625 -0.0625 C81.77276367 -0.05573242 81.77276367 -0.05573242 83.51757812 -0.04882812 C86.34510604 -0.03699746 89.17251896 -0.01967618 92 0 C90.0075271 7.0137499 87.64912092 13.80314643 85 20.59375 C84.61154907 21.59898712 84.22309814 22.60422424 83.82287598 23.6399231 C82.98678096 25.80265883 82.14904545 27.96476096 81.30981445 30.12628174 C79.06356581 35.91199441 76.82928812 41.70232988 74.59375 47.4921875 C74.13343384 48.6834726 73.67311768 49.87475769 73.19885254 51.10214233 C67.8354433 64.99388595 62.55534393 78.9171698 57.28125 92.84301758 C56.50149983 94.90188507 55.72143975 96.96063522 54.94104004 99.01925659 C54.2395883 100.86978522 53.53890981 102.72060726 52.8392334 104.57180786 C50.62572099 110.41128253 48.32022593 116.19943518 46 122 C38.08 122 30.16 122 22 122 C22.8450894 117.77455301 23.89929933 114.53291626 25.5390625 110.59765625 C26.03664063 109.37755859 26.53421875 108.15746094 27.046875 106.90039062 C27.83491719 104.97769542 28.62722757 103.05718691 29.43066406 101.14086914 C30.20923606 99.27778933 30.96813835 97.40652835 31.7265625 95.53515625 C32.18627441 94.425354 32.64598633 93.31555176 33.11962891 92.17211914 C34.88817483 85.79976273 32.17137721 80.47333757 29.74609375 74.6328125 C29.41315308 73.81657913 29.0802124 73.00034576 28.73718262 72.15937805 C28.01773362 70.39745939 27.29549923 68.63667604 26.57077026 66.87692261 C25.03582753 63.14961788 23.51440629 59.41684357 21.99208069 55.68437195 C21.20057961 53.74423444 20.40836465 51.80438803 19.61546326 49.86482239 C15.70377403 40.29321483 11.84422318 30.70102479 8.00344849 21.10076904 C6.94670735 18.46050454 5.88736684 15.82129293 4.82788086 13.18212891 C4.18586904 11.57851702 3.54401442 9.97484218 2.90234375 8.37109375 C2.45828186 7.26632439 2.45828186 7.26632439 2.00524902 6.13923645 C0 1.11453931 0 1.11453931 0 0 Z " fill="#FCFCFC" transform="translate(766,125)"/>
<path d="M0 0 C8.25 0 16.5 0 25 0 C25 34.65 25 69.3 25 105 C39.85 105 54.7 105 70 105 C70 112.59 70 120.18 70 128 C46.9 128 23.8 128 0 128 C0 85.76 0 43.52 0 0 Z " fill="#FDFDFD" transform="translate(391,86)"/>
<path d="M0 0 C1.51110352 -0.02320312 1.51110352 -0.02320312 3.05273438 -0.046875 C13.81543737 0.00849582 22.45563739 2.90624071 30.24609375 10.41796875 C34.49199153 15.28477202 35.0625 18.90623348 35.0625 25.5 C28.4625 26.16 21.8625 26.82 15.0625 27.5 C14.0725 25.19 13.0825 22.88 12.0625 20.5 C7.96960418 17.32383877 2.20325028 17.0292993 -2.8203125 17.203125 C-5.95691466 17.64294375 -8.30141301 18.78654345 -10.9375 20.5 C-12.37485246 23.37470493 -12.31922649 25.31894588 -11.9375 28.5 C-8.22466935 32.24111889 -4.39591527 33.47707508 0.625 34.5625 C1.32882812 34.7282251 2.03265625 34.8939502 2.7578125 35.06469727 C5.99670279 35.82555727 9.24412764 36.53925967 12.49609375 37.2421875 C22.19257709 39.44088054 29.41355343 43.07057505 35.0625 51.5 C38.76159807 58.07462337 39.07167926 65.38137005 37.62890625 72.69921875 C35.6625058 78.91597544 31.49507594 84.26021106 26.0390625 87.8203125 C24.06637742 88.84066685 22.14019579 89.71552421 20.0625 90.5 C18.81533203 91.03173828 18.81533203 91.03173828 17.54296875 91.57421875 C6.14693702 94.60548645 -9.10369179 94.4574829 -19.6640625 88.9140625 C-20.41429687 88.44742188 -21.16453125 87.98078125 -21.9375 87.5 C-22.62585938 87.11585938 -23.31421875 86.73171875 -24.0234375 86.3359375 C-28.6091332 83.49164523 -31.99160026 79.54969024 -33.9375 74.5 C-34.2675 71.53 -34.5975 68.56 -34.9375 65.5 C-28.6675 65.17 -22.3975 64.84 -15.9375 64.5 C-14.9475 66.48 -13.9575 68.46 -12.9375 70.5 C-8.53064929 74.75489034 -3.37997473 75.63511269 2.5625 75.8125 C7.08504049 75.73240051 10.24685522 75.11070433 14.0625 72.5 C15.50680855 69.61138291 15.43938506 67.70352299 15.0625 64.5 C10.79504224 58.39820071 4.72218963 57.85290692 -2.25 56.4375 C-12.7963771 54.23699934 -22.47077749 51.81952077 -29.9375 43.5 C-34.35301814 36.44855134 -35.8716723 29.7880635 -34.9375 21.5 C-32.40210717 13.31328763 -27.29523708 7.34558822 -19.74853516 3.33740234 C-13.06574289 0.47055295 -7.22599639 -0.11053149 0 0 Z " fill="#FCFCFC" transform="translate(728.9375,122.5)"/>
<path d="M0 0 C0.92039062 -0.00708984 1.84078125 -0.01417969 2.7890625 -0.02148438 C13.02212778 0.07219862 22.18878831 2.62575438 30 9.4375 C33.4282618 13.30630946 35.27559117 16.71490067 35.3125 21.9375 C35.209375 23.0925 35.10625 24.2475 35 25.4375 C32.60468244 25.77495354 30.20885732 26.1075829 27.8125 26.4375 C27.13896484 26.53289062 26.46542969 26.62828125 25.77148438 26.7265625 C22.15335423 27.22074613 18.65203599 27.55096131 15 27.4375 C14.855625 26.344375 14.71125 25.25125 14.5625 24.125 C13.84076635 21.57831128 13.40882969 20.68245994 11.109375 19.3046875 C4.9892486 17.16056158 -0.7331424 16.36574372 -6.875 18.8125 C-10.06811311 20.08436988 -10.06811311 20.08436988 -11 22.4375 C-11.50042146 25.35288029 -11.50042146 25.35288029 -11 28.4375 C-5.64100614 34.90525121 4.93110494 35.43662564 12.6875 36.875 C21.80653624 38.65996348 29.86133181 41.70451635 35.48046875 49.48828125 C39.89512055 57.04388979 40.2907539 65.09795652 38.55859375 73.60546875 C36.33696089 79.71146599 31.05128768 85.43381834 25.5625 88.8125 C13.51384173 94.30837921 -2.89817429 94.82160612 -15.375 90.375 C-22.97800641 86.83686891 -28.92805908 82.21308662 -32.390625 74.4375 C-33.34213931 71.31458125 -33.27017181 68.67956177 -33 65.4375 C-26.62694402 64.69242456 -20.41688675 64.33400183 -14 64.4375 C-13.71125 65.51 -13.4225 66.5825 -13.125 67.6875 C-11.60408668 71.22434089 -9.88178256 72.36664787 -6.375 73.875 C-0.00215753 76.02710983 5.69944551 76.59208148 12 74 C14.81041446 72.7272542 14.81041446 72.7272542 16 71.4375 C16.50375834 67.37101976 16.50375834 67.37101976 16 63.4375 C11.80208897 58.67634724 6.37697366 58.18827281 0.4375 57.0625 C-11.38050449 54.58579427 -22.34171398 51.49179949 -30 41.4375 C-34.28425651 34.8038125 -33.7239219 27.10108701 -33 19.4375 C-31.36836953 12.85966898 -26.62653067 8.00720224 -21 4.4375 C-13.95868158 0.85591568 -7.84183151 -0.17023584 0 0 Z " fill="#FCFCFC" transform="translate(897,122.5625)"/>
<path d="M0 0 C1.13888672 -0.00580078 1.13888672 -0.00580078 2.30078125 -0.01171875 C5.93531802 -0.00535354 8.95137515 0.23784379 12.5 1.125 C12.5 7.065 12.5 13.005 12.5 19.125 C7.6171875 19.41796875 7.6171875 19.41796875 2.734375 19.7109375 C-0.26857315 20.09537289 -2.05466677 20.38634564 -4.5 22.125 C-6.98307386 25.55324391 -6.8958428 29.25017047 -7.125 33.375 C-7.310625 36.71625 -7.310625 36.71625 -7.5 40.125 C-1.23 40.125 5.04 40.125 11.5 40.125 C11.5 46.065 11.5 52.005 11.5 58.125 C5.56 58.455 -0.38 58.785 -6.5 59.125 C-6.83 82.225 -7.16 105.325 -7.5 129.125 C-14.43 129.125 -21.36 129.125 -28.5 129.125 C-30.90316291 125.52025564 -30.74312609 123.91810409 -30.72705078 119.6340332 C-30.72734283 118.9801059 -30.72763489 118.32617859 -30.72793579 117.6524353 C-30.7265437 115.49341511 -30.71098857 113.33474107 -30.6953125 111.17578125 C-30.69158193 109.67791431 -30.68873517 108.18004493 -30.68673706 106.68217468 C-30.67910403 102.74149833 -30.65945845 98.80096962 -30.6373291 94.86035156 C-30.61686353 90.83856198 -30.60773382 86.81674853 -30.59765625 82.79492188 C-30.57621216 74.90487265 -30.54103278 67.0149717 -30.5 59.125 C-34.79 59.125 -39.08 59.125 -43.5 59.125 C-43.5 52.855 -43.5 46.585 -43.5 40.125 C-39.21 40.125 -34.92 40.125 -30.5 40.125 C-30.54640625 38.94164062 -30.5928125 37.75828125 -30.640625 36.5390625 C-30.93798462 25.77031478 -30.38402009 18.00651614 -24.3125 8.8125 C-17.00801411 1.83265792 -9.86619022 -0.05025224 0 0 Z " fill="#FDFDFD" transform="translate(606.5,84.875)"/>
<path d="M0 0 C0 8.58 0 17.16 0 26 C6.6 26 13.2 26 20 26 C20 32.27 20 38.54 20 45 C13.4 45 6.8 45 0 45 C0.07411563 50.7299047 0.15704972 56.45828151 0.26245117 62.1875 C0.29563265 64.13500968 0.32368557 66.08261397 0.34643555 68.03027344 C0.38010634 70.83569515 0.43242827 73.64025528 0.48828125 76.4453125 C0.49467117 77.31116974 0.5010611 78.17702698 0.50764465 79.06912231 C0.62871688 84.08713655 1.17048375 87.67957362 4 92 C7.40431947 94.26954631 9.16524202 94.36549949 13.1875 94.625 C16.0646875 94.810625 16.0646875 94.810625 19 95 C19 101.6 19 108.2 19 115 C-6.68934637 115.54273267 -6.68934637 115.54273267 -17.08984375 106.42578125 C-22.51538313 99.5356791 -22.41147459 92.23311528 -22.29296875 83.84375 C-22.28872391 82.70087524 -22.28447906 81.55800049 -22.28010559 80.38049316 C-22.26339974 76.75341591 -22.22576156 73.1269075 -22.1875 69.5 C-22.17244275 67.03125806 -22.15875617 64.56250736 -22.14648438 62.09375 C-22.11352257 56.06228298 -22.06179547 50.03123773 -22 44 C-26.29 44 -30.58 44 -35 44 C-35 38.06 -35 32.12 -35 26 C-30.71 26 -26.42 26 -22 26 C-22 18.74 -22 11.48 -22 4 C-18.74125 3.34 -15.4825 2.68 -12.125 2 C-10.58610107 1.68675781 -10.58610107 1.68675781 -9.01611328 1.3671875 C-8.20899902 1.20476562 -7.40188477 1.04234375 -6.5703125 0.875 C-5.32918701 0.62363281 -5.32918701 0.62363281 -4.06298828 0.3671875 C-2 0 -2 0 0 0 Z " fill="#FDFDFD" transform="translate(661,99)"/>
<path d="M0 0 C5.93469342 3.50910295 9.53607105 8.85653421 11.5625 15.375 C11.99025395 18.34587676 12.03951969 21.25187808 12 24.25 C11.99315186 25.0443042 11.98630371 25.8386084 11.97924805 26.65698242 C11.76991353 34.2941643 10.08788758 39.39633773 5.125 45.25 C0.09114346 49.42441761 -3.68053733 50.96053458 -10.25 50.9375 C-10.96124023 50.93508301 -11.67248047 50.93266602 -12.40527344 50.93017578 C-17.75786686 50.74243007 -21.07714994 49.73484466 -24.9609375 46.08203125 C-31.89372213 38.06714532 -32.86281543 31.14200821 -32.6875 20.8203125 C-32.14083391 13.28657049 -29.98394049 7.67493202 -24.4375 2.375 C-17.41559904 -2.86693071 -7.98319941 -3.59168518 0 0 Z " fill="#0D1421" transform="translate(522.4375,144.625)"/>
<path d="M0 0 C0 8.25 0 16.5 0 25 C6.27 25 12.54 25 19 25 C20.1353654 27.27073079 20.12892412 28.54283279 20.1328125 31.0625 C20.13474609 32.25746094 20.13474609 32.25746094 20.13671875 33.4765625 C20.13285156 34.30929688 20.12898437 35.14203125 20.125 36 C20.13080078 37.24910156 20.13080078 37.24910156 20.13671875 38.5234375 C20.13542969 39.32007813 20.13414062 40.11671875 20.1328125 40.9375 C20.13168457 41.66839844 20.13055664 42.39929688 20.12939453 43.15234375 C20 45 20 45 19 47 C12.73 47 6.46 47 0 47 C0 60.86 0 74.72 0 89 C-2 87 -2 87 -2.22705078 83.00927734 C-2.22673337 81.28479831 -2.21539124 79.56029967 -2.1953125 77.8359375 C-2.1924826 76.92872955 -2.18965271 76.02152161 -2.18673706 75.08682251 C-2.17552153 72.18274877 -2.15041463 69.27898088 -2.125 66.375 C-2.11497197 64.40885861 -2.10584581 62.4427124 -2.09765625 60.4765625 C-2.07727731 55.65082838 -2.03813153 50.82575746 -2 46 C4.6 46 11.2 46 18 46 C18 39.73 18 33.46 18 27 C11.4 27 4.8 27 -2 27 C-2 18.42 -2 9.84 -2 1 C-3.32 0.67 -4.64 0.34 -6 0 C-3 -1 -3 -1 0 0 Z " fill="#2A2D31" transform="translate(663,98)"/>
<path d="M0 0 C0.33 0.66 0.66 1.32 1 2 C1.97348389 1.99476318 2.94696777 1.98952637 3.94995117 1.98413086 C7.574779 1.96597883 11.19960283 1.95453077 14.82446289 1.94506836 C16.39087602 1.94005144 17.9572845 1.93323638 19.52368164 1.92456055 C21.78012239 1.91237906 24.03650102 1.90674519 26.29296875 1.90234375 C27.33701118 1.89460182 27.33701118 1.89460182 28.40214539 1.88670349 C32.06470152 1.88628454 35.43868858 2.12851905 39 3 C39 3.33 39 3.66 39 4 C25.8 4 12.6 4 -1 4 C-0.67 2.68 -0.34 1.36 0 0 Z " fill="#2379FE" transform="translate(230,142)"/>
<path d="M0 0 C0 3 0 3 -2.08666992 5.27416992 C-3.04806885 6.17369385 -4.00946777 7.07321777 -5 8 C-6.04998313 9.04196113 -7.09577334 10.08815978 -8.13793945 11.13793945 C-16.42529297 19.42529297 -24.71264648 27.71264648 -33 36 C-33 33 -33 33 -31.74719238 31.38642883 C-31.16095093 30.80684921 -30.57470947 30.22726959 -29.97070312 29.63012695 C-29.31001831 28.96966873 -28.6493335 28.30921051 -27.96862793 27.6287384 C-27.24679321 26.92238754 -26.5249585 26.21603668 -25.78125 25.48828125 C-25.04878052 24.76005661 -24.31631104 24.03183197 -23.56164551 23.28153992 C-21.21469173 20.95141304 -18.85753427 18.63191672 -16.5 16.3125 C-14.9094745 14.73701608 -13.31962177 13.16085266 -11.73046875 11.58398438 C-7.82809217 7.7147303 -3.91728183 3.85415989 0 0 Z " fill="#0664FE" transform="translate(262,166)"/>
<path d="M0 0 C0.02708567 1.60407328 0.04643483 3.2082785 0.0625 4.8125 C0.07410156 5.70582031 0.08570313 6.59914062 0.09765625 7.51953125 C0 10 0 10 -1 13 C-1.99 13 -2.98 13 -4 13 C-3.88652381 11.02013918 -3.7589065 9.04108402 -3.625 7.0625 C-3.55539062 5.96035156 -3.48578125 4.85820312 -3.4140625 3.72265625 C-3.27742187 2.82417969 -3.14078125 1.92570313 -3 1 C-1 0 -1 0 0 0 Z " fill="#181E28" transform="translate(939,183)"/>
<path d="M0 0 C0.66 0.33 1.32 0.66 2 1 C0.75482035 2.13033298 -0.49636652 3.25405036 -1.75 4.375 C-2.44609375 5.00148438 -3.1421875 5.62796875 -3.859375 6.2734375 C-5.88181088 7.90467228 -7.56570641 9.09950928 -10 10 C-10.99 9.67 -11.98 9.34 -13 9 C-8.71 6.03 -4.42 3.06 0 0 Z " fill="#0F82F5" transform="translate(145,49)"/>
<path d="M0 0 C1.09570312 0.10183594 2.19140625 0.20367187 3.3203125 0.30859375 C4.16335938 0.39238281 5.00640625 0.47617188 5.875 0.5625 C5.875 0.8925 5.875 1.2225 5.875 1.5625 C3.91810341 1.78392255 1.95938048 1.9892568 0 2.1875 C-1.63582031 2.36152344 -1.63582031 2.36152344 -3.3046875 2.5390625 C-4.70074219 2.55066406 -4.70074219 2.55066406 -6.125 2.5625 C-6.785 1.9025 -7.445 1.2425 -8.125 0.5625 C-5.28943413 -0.85528293 -3.1341294 -0.30007622 0 0 Z " fill="#181F2A" transform="translate(727.125,140.4375)"/>
</svg>
