<?xml version="1.0" encoding="UTF-8"?>
<svg version="1.1" xmlns="http://www.w3.org/2000/svg" width="1024" height="1024">
<path d="M0 0 C337.92 0 675.84 0 1024 0 C1024 337.92 1024 675.84 1024 1024 C686.08 1024 348.16 1024 0 1024 C0 686.08 0 348.16 0 0 Z " fill="#E4F6FE" transform="translate(0,0)"/>
<path d="M0 0 C2.49695084 1.91765824 4.81568021 3.92692368 7.12890625 6.0625 C8.1034375 6.94550781 9.07796875 7.82851563 10.08203125 8.73828125 C28.0149251 25.49825927 39.24206105 49.64245647 40.3515625 74.21875 C41.16235525 103.09180546 31.16817799 129.14709351 11.37890625 150.25 C-2.03363732 162.99057245 -17.96120245 170.84466761 -35.87109375 175.0625 C-36.78503906 175.28808594 -37.69898438 175.51367188 -38.640625 175.74609375 C-54.54845478 179.04600122 -71.47077793 178.06185625 -86.87109375 173.0625 C-87.83885742 172.74901611 -87.83885742 172.74901611 -88.82617188 172.42919922 C-103.20423535 167.5869402 -115.00796012 159.60221284 -125.87109375 149.0625 C-126.89783203 148.14597656 -126.89783203 148.14597656 -127.9453125 147.2109375 C-144.06927166 132.32240939 -153.32543907 108.69397296 -154.25 87.1015625 C-154.57185257 73.91159904 -154.42798562 61.53682347 -149.87109375 49.0625 C-149.62439941 48.36769531 -149.37770508 47.67289062 -149.12353516 46.95703125 C-139.95897882 21.5280597 -121.99503931 2.14492721 -97.68359375 -9.625 C-65.87673151 -24.50266802 -28.63313886 -19.32249915 0 0 Z " fill="#218DFE" transform="translate(278.87109375,418.9375)"/>
<path d="M0 0 C8.71797292 6.28573173 14.18046499 14.25046712 17.44921875 24.42578125 C17.73925781 25.30943359 17.73925781 25.30943359 18.03515625 26.2109375 C20.49079964 39.34631302 18.25430159 51.90531356 11.109375 63.10546875 C4.41249543 72.46534279 -5.16636277 78.47629259 -16.55078125 80.42578125 C-29.54093652 81.59271524 -40.42189663 80.03617242 -51.36328125 72.30078125 C-61.28606059 63.83723417 -66.70007974 53.41131592 -67.92578125 40.46484375 C-68.5273965 27.31570208 -65.10124769 16.51813508 -56.55078125 6.42578125 C-41.93088377 -9.4330906 -17.89799282 -11.04577505 0 0 Z " fill="#121212" transform="translate(500.55078125,472.57421875)"/>
<path d="M0 0 C0.495 0.495 0.495 0.495 1 1 C0.56567533 6.97320755 -0.8517943 12.10016742 -2.90625 17.69921875 C-3.19101196 18.49729446 -3.47577393 19.29537018 -3.76916504 20.11763 C-4.67174475 22.64376191 -5.58516289 25.1657841 -6.5 27.6875 C-7.41315609 30.22048415 -8.32390876 32.75428346 -9.23083496 35.289505 C-9.79332319 36.8602687 -10.3596287 38.42967226 -10.93029785 39.9974823 C-12.24250596 43.64645041 -13.38212494 47.15486496 -14 51 C-12.89543457 50.97643433 -12.89543457 50.97643433 -11.76855469 50.95239258 C-8.42911471 50.88999528 -5.08979745 50.85099382 -1.75 50.8125 C-0.59113281 50.78736328 0.56773437 50.76222656 1.76171875 50.73632812 C2.87675781 50.72666016 3.99179688 50.71699219 5.140625 50.70703125 C6.16704102 50.6913208 7.19345703 50.67561035 8.25097656 50.65942383 C11.41820636 51.05181153 12.76427397 51.74730451 15 54 C15.64126962 57.36364067 15.80390409 59.70496598 13.94580078 62.69824219 C12.40132507 64.52552428 10.76980998 66.1987944 9.0625 67.875 C8.44366943 68.50994385 7.82483887 69.1448877 7.18725586 69.79907227 C5.14346446 71.88544793 3.07435394 73.94403238 1 76 C-0.49007055 77.49039847 -1.97964696 78.98129112 -3.46875 80.47265625 C-5.65460119 82.66063813 -7.84325077 84.84483122 -10.04858398 87.01318359 C-13.25802232 90.18001367 -16.3717045 93.37001068 -19.3125 96.7890625 C-23.54617393 101.69800952 -28.04453148 106.33810351 -32.59790039 110.94799805 C-33.5814597 111.94828065 -34.55959948 112.95391875 -35.5324707 113.96459961 C-36.95883945 115.44576455 -38.40101 116.90975978 -39.84765625 118.37109375 C-40.69336182 119.23661865 -41.53906738 120.10214355 -42.41040039 120.99389648 C-45.38036522 123.29466023 -47.26472912 123.88580437 -51 124 C-53 122 -53 122 -53.07873535 120.1464386 C-52.38878474 114.51861295 -51.04857023 109.48114761 -49.09375 104.16796875 C-48.80898804 103.36893631 -48.52422607 102.56990387 -48.23083496 101.74665833 C-47.32969836 99.22354684 -46.41540434 96.70546576 -45.5 94.1875 C-44.58739752 91.65075405 -43.67754569 89.11304391 -42.76916504 86.57478333 C-42.20573408 85.00328001 -41.63937544 83.43282241 -41.06970215 81.86357117 C-39.8903146 78.59841575 -38.80087589 75.37734724 -38 72 C-38.73637695 72.02094727 -39.47275391 72.04189453 -40.23144531 72.06347656 C-43.57082442 72.14667144 -46.90998549 72.19867157 -50.25 72.25 C-51.40886719 72.28351563 -52.56773437 72.31703125 -53.76171875 72.3515625 C-54.87675781 72.36445313 -55.99179688 72.37734375 -57.140625 72.390625 C-58.16704102 72.41157227 -59.19345703 72.43251953 -60.25097656 72.45410156 C-63.73307415 71.87890605 -64.90603229 70.79632718 -67 68 C-67.0913232 63.05713206 -65.89986708 60.21094829 -62.50854492 56.62573242 C-62.0107251 56.13049072 -61.51290527 55.63524902 -61 55.125 C-60.47962158 54.58399658 -59.95924316 54.04299316 -59.4230957 53.4855957 C-57.63368214 51.63809945 -55.8200584 49.81730422 -54 48 C-53.30052246 47.29891113 -52.60104492 46.59782227 -51.88037109 45.87548828 C-45.95023792 39.93750236 -45.95023792 39.93750236 -43.05273438 37.08837891 C-39.81917643 33.89672617 -36.68063434 30.68768899 -33.7265625 27.234375 C-29.32181134 22.11984756 -24.53464522 17.38471984 -19.75512695 12.62475586 C-18.16954204 11.04460356 -16.58946558 9.45908024 -15.00976562 7.87304688 C-14.00032108 6.86426194 -12.99056701 5.85578662 -11.98046875 4.84765625 C-10.61764771 3.4865271 -10.61764771 3.4865271 -9.22729492 2.09790039 C-5.79397986 -1.13595649 -4.47878778 -1.14840712 0 0 Z " fill="#FCFDFE" transform="translate(247,436)"/>
<path d="M0 0 C7.26 0 14.52 0 22 0 C26.66070704 10.8269036 30.67095365 21.85927767 34.6875 32.9375 C35.70249024 35.73023033 36.71827183 38.52267007 37.7348175 41.31483459 C38.36249265 43.03957821 38.98916305 44.76468792 39.6146698 46.49021912 C41.01790409 50.35247815 42.4404212 54.19723742 44 58 C47.10079425 51.34748799 49.66329711 44.5851952 52.07421875 37.65625 C52.44352005 36.60594604 52.81282135 35.55564209 53.1933136 34.47351074 C54.36155232 31.15022635 55.52499667 27.82529461 56.6875 24.5 C57.86102343 21.14625294 59.03564187 17.79291026 60.21382141 14.4407959 C60.9444748 12.36178072 61.6724052 10.28180622 62.39738464 8.20080566 C62.72475113 7.26893433 63.05211761 6.33706299 63.3894043 5.37695312 C63.82098091 4.14193054 63.82098091 4.14193054 64.26127625 2.88195801 C65 1 65 1 66 0 C67.63472882 -0.08700342 69.27314055 -0.10701063 70.91015625 -0.09765625 C71.89951172 -0.09443359 72.88886719 -0.09121094 73.90820312 -0.08789062 C74.94912109 -0.07951172 75.99003906 -0.07113281 77.0625 -0.0625 C78.62967773 -0.05573242 78.62967773 -0.05573242 80.22851562 -0.04882812 C82.8190666 -0.03699913 85.40950559 -0.02051689 88 0 C80.19041653 21.22097786 71.73418019 42.19621924 63.31268311 63.17974854 C56.40523857 80.40008127 49.69383079 97.69573529 43 115 C36.07 115 29.14 115 22 115 C22.82986323 110.85068385 23.73653922 108.12949733 25.49609375 104.38671875 C25.97111328 103.30197266 26.44613281 102.21722656 26.93554688 101.09960938 C27.92558997 98.85044776 28.95367565 96.61759709 30.02148438 94.40429688 C32.77451276 87.91202385 33.53704546 83.27503784 30.90625 76.671875 C30.00161162 74.56345797 29.0569722 72.47930593 28.08883667 70.39926147 C26.44804719 66.78376698 24.99786988 63.09615373 23.52406311 59.41011047 C21.40322508 54.11411465 19.22730644 48.84063728 17.0625 43.5625 C16.18533807 41.41870521 15.30838388 39.27482542 14.43164062 37.13085938 C13.57040138 35.0260053 12.70907448 32.92118708 11.84765625 30.81640625 C11.43182281 29.80027252 11.01598938 28.78413879 10.58755493 27.73721313 C8.67517873 23.06921831 6.755478 18.40465711 4.81201172 13.74951172 C4.31633949 12.55877296 4.31633949 12.55877296 3.81065369 11.34397888 C3.20235299 9.88458081 2.59117866 8.42637581 1.97657776 6.96961975 C0 2.22268534 0 2.22268534 0 0 Z " fill="#121212" transform="translate(723,468)"/>
<path d="M0 0 C1.36898437 -0.0309375 1.36898437 -0.0309375 2.765625 -0.0625 C12.79546389 -0.11965008 21.19963986 2.66049507 28.875 9.25 C33.29317565 14.330902 34.21686108 18.68232204 34.875 25.25 C31.79238544 25.4246397 28.71104167 25.53094067 25.625 25.625 C24.75230469 25.67527344 23.87960937 25.72554688 22.98046875 25.77734375 C20.47955121 25.83461667 18.31372013 25.81611628 15.875 25.25 C13.42578125 22.34375 13.42578125 22.34375 11.875 19.25 C6.71285767 15.47282268 1.03285594 15.53767572 -5.125 16.25 C-8.24437969 17.62252707 -9.6147715 18.229543 -11.125 21.25 C-11.54202122 24.1657691 -11.54202122 24.1657691 -11.125 27.25 C-8.36201704 30.68299038 -6.13917423 31.84475631 -1.875 32.75 C-0.823125 32.98847656 0.22875 33.22695313 1.3125 33.47265625 C2.488125 33.72917969 3.66375 33.98570312 4.875 34.25 C28.39004959 39.59275759 28.39004959 39.59275759 35.875 50.25 C38.76536703 56.28207032 38.5756277 62.42668399 36.8125 68.75 C33.73177581 77.02231495 28.12936697 81.6524948 20.3046875 85.33984375 C14.5012795 87.51378919 8.81586431 87.46544967 2.6875 87.5 C1.79224609 87.520625 0.89699219 87.54125 -0.02539062 87.5625 C-9.68552704 87.61829862 -17.68566336 85.54955618 -25.14453125 79.265625 C-31.29316703 73.00784184 -32.14105693 68.10548765 -33.125 59.25 C-26.855 59.25 -20.585 59.25 -14.125 59.25 C-13.135 61.56 -12.145 63.87 -11.125 66.25 C-6.78369327 70.31997506 -2.38681564 70.43203565 3.3125 70.4375 C5.29056641 70.45876953 5.29056641 70.45876953 7.30859375 70.48046875 C10.53764495 70.2718006 12.26368653 70.07856103 14.875 68.25 C16.43971233 65.12057535 16.57201958 61.63917777 15.875 58.25 C12.93202208 54.32130176 10.23380796 53.57327095 5.5 52.75 C-22.11459436 47.44615307 -22.11459436 47.44615307 -28.2890625 38.578125 C-32.00528778 32.32203353 -33.27945242 26.38633492 -31.6640625 19.19921875 C-29.18835114 11.69926962 -24.95309893 6.94416039 -17.9375 3.375 C-11.69842362 0.48068193 -6.7976997 0.03745289 0 0 Z " fill="#111112" transform="translate(682.125,465.75)"/>
<path d="M0 0 C5.13137394 3.44644519 9.42114533 8.04591697 11.84375 13.78125 C11.84375 16.09125 11.84375 18.40125 11.84375 20.78125 C5.57375 20.78125 -0.69625 20.78125 -7.15625 20.78125 C-8.14625 18.80125 -9.13625 16.82125 -10.15625 14.78125 C-15.56471871 11.46994263 -20.89258111 10.96517131 -27.15625 11.78125 C-29.63675929 12.94557069 -31.25050952 13.87550952 -33.15625 15.78125 C-33.76468756 20.90396717 -33.76468756 20.90396717 -31.97265625 25.4453125 C-29.64945386 27.15399039 -27.65557181 27.64202664 -24.84375 28.28125 C-23.24466797 28.65636719 -23.24466797 28.65636719 -21.61328125 29.0390625 C-19.28284753 29.5393816 -16.94650068 30.01281918 -14.60546875 30.4609375 C-2.73184357 32.77077934 5.80240831 35.96862609 13.15625 45.90625 C16.10506051 51.45482814 15.58422753 57.45645685 14.25390625 63.4296875 C11.73955148 70.96116492 6.72075548 75.98884925 -0.12109375 79.90625 C-10.57381813 84.66372631 -26.66462516 84.78456835 -37.46875 81.21875 C-44.75626406 77.94515242 -50.23602727 72.680842 -54.15625 65.78125 C-55.15625 62.78125 -55.15625 62.78125 -55.15625 54.78125 C-49.21625 54.78125 -43.27625 54.78125 -37.15625 54.78125 C-35.83625 57.42125 -34.51625 60.06125 -33.15625 62.78125 C-28.73003331 65.95452626 -24.40451125 66.30108478 -19.09375 66.28125 C-18.39958984 66.30960938 -17.70542969 66.33796875 -16.99023438 66.3671875 C-13.04520882 66.38217335 -11.31981776 65.9108942 -8.19921875 63.4375 C-5.95878726 60.92317176 -5.95878726 60.92317176 -5.53125 57.78125 C-6.17874484 54.67327476 -7.01603137 53.1537506 -9.30566406 50.9765625 C-13.44587888 48.30235515 -18.57956752 47.73686444 -23.34375 46.78125 C-33.94678409 44.61659497 -43.91412476 42.3587532 -51 33.625 C-54.77299553 27.60860172 -54.85894081 21.70005186 -54.15625 14.78125 C-52.13282743 7.19981862 -46.47621677 2.58674566 -40.1171875 -1.54296875 C-28.86053266 -7.21107233 -10.8193095 -6.11526189 0 0 Z " fill="#111112" transform="translate(871.15625,470.21875)"/>
<path d="M0 0 C6.93 0 13.86 0 21 0 C21 32.01 21 64.02 21 97 C35.52 97 50.04 97 65 97 C65 103.6 65 110.2 65 117 C43.55 117 22.1 117 0 117 C0 78.39 0 39.78 0 0 Z " fill="#131212" transform="translate(363,434)"/>
<path d="M0 0 C1 1 1 1 1.09765625 4.81640625 C1.09098089 6.39846682 1.07901875 7.98051159 1.0625 9.5625 C1.05798828 10.36880859 1.05347656 11.17511719 1.04882812 12.00585938 C1.03700518 14.00393756 1.01906914 16.00197783 1 18 C-0.66289063 18.05607422 -0.66289063 18.05607422 -2.359375 18.11328125 C-3.82294974 18.17895448 -5.28648991 18.24540135 -6.75 18.3125 C-7.47960937 18.33505859 -8.20921875 18.35761719 -8.9609375 18.38085938 C-13.17498091 18.59156155 -16.04038918 18.85354506 -19 22 C-20.0541518 25.16245541 -20.31275672 27.86948218 -20.5625 31.1875 C-20.706875 33.105625 -20.85125 35.02375 -21 37 C-13.74 37 -6.48 37 1 37 C1 42.61 1 48.22 1 54 C-6.26 54 -13.52 54 -21 54 C-21 75.78 -21 97.56 -21 120 C-27.6 120 -34.2 120 -41 120 C-41 98.22 -41 76.44 -41 54 C-45.29 54 -49.58 54 -54 54 C-54 48.39 -54 42.78 -54 37 C-49.71 37 -45.42 37 -41 37 C-41.04640625 35.96101563 -41.0928125 34.92203125 -41.140625 33.8515625 C-41.43346109 24.61280579 -41.50092848 16.47524712 -35.33984375 8.98046875 C-25.38394759 -0.73010759 -13.0805105 -0.85429458 0 0 Z " fill="#131314" transform="translate(577,431)"/>
<path d="M0 0 C6.6 0 13.2 0 20 0 C20 7.92 20 15.84 20 24 C27.26 24 34.52 24 42 24 C42 29.61 42 35.22 42 41 C34.74 41 27.48 41 20 41 C20.07412521 46.58750694 20.15706701 52.17344977 20.26245117 57.76025391 C20.29562793 59.65925899 20.32368231 61.55836096 20.34643555 63.45751953 C20.38011518 66.19345235 20.4324372 68.92850311 20.48828125 71.6640625 C20.49467117 72.50804596 20.5010611 73.35202942 20.50764465 74.22158813 C20.63045341 79.18736085 21.2385314 82.70268933 24 87 C27.16965142 88.58482571 30.63744541 88.37852823 34.125 88.5625 C36.72375 88.706875 39.3225 88.85125 42 89 C42 94.94 42 100.88 42 107 C30.94971494 110.1572243 21.40630414 110.20315207 11 105 C5.37963905 101.8151288 2.98340318 96.94003824 1 91 C0.24278174 87.70932949 -0.12302861 84.67515647 -0.11352539 81.30151367 C-0.11344986 80.40095749 -0.11337433 79.50040131 -0.11329651 78.57255554 C-0.10813522 77.6140419 -0.10297394 76.65552826 -0.09765625 75.66796875 C-0.0962413 74.67622147 -0.09482635 73.68447418 -0.09336853 72.66267395 C-0.08778418 69.50425157 -0.07523452 66.34590085 -0.0625 63.1875 C-0.05748298 61.04231873 -0.05292042 58.89713635 -0.04882812 56.75195312 C-0.03781987 51.5012746 -0.02056597 46.25064944 0 41 C-4.95 41 -9.9 41 -15 41 C-15 35.39 -15 29.78 -15 24 C-10.05 24 -5.1 24 0 24 C0 16.08 0 8.16 0 0 Z " fill="#121212" transform="translate(598,444)"/>
<path d="M0 0 C6.83487616 2.5098258 10.92278312 7.55707715 14 14 C16.17576363 20.52729089 16.04508106 29.05145482 13.75 35.5625 C10.69669063 41.56007198 6.86187337 46.41460651 0.203125 48.5859375 C-6.33053814 49.81389547 -13.63143506 50.36926004 -19.5 46.875 C-24.8152877 42.90252182 -28.38491582 38.11651343 -31 32 C-32.07978249 23.90163132 -31.79957919 16.25053013 -27.63671875 9.09375 C-20.43142809 -0.1235192 -11.04452322 -1.50758575 0 0 Z " fill="#E4F5FD" transform="translate(484,485)"/>
<path d="M0 0 C6.93 0 13.86 0 21 0 C21 32.01 21 64.02 21 97 C20.67 97 20.34 97 20 97 C20 65.32 20 33.64 20 1 C14.06 1 8.12 1 2 1 C2 38.62 2 76.24 2 115 C22.13 115 42.26 115 63 115 C63 109.72 63 104.44 63 99 C49.47 99 35.94 99 22 99 C22 98.67 22 98.34 22 98 C36.19 98 50.38 98 65 98 C65 104.27 65 110.54 65 117 C43.55 117 22.1 117 0 117 C0 78.39 0 39.78 0 0 Z " fill="#040405" transform="translate(363,434)"/>
<path d="M0 0 C0.33 0 0.66 0 1 0 C1 3.96 1 7.92 1 12 C8.26 12 15.52 12 23 12 C23 17.61 23 23.22 23 29 C15.74 29 8.48 29 1 29 C1 50.78 1 72.56 1 95 C-5.27 95 -11.54 95 -18 95 C-18 73.22 -18 51.44 -18 29 C-17.67 29 -17.34 29 -17 29 C-16.67 50.12 -16.34 71.24 -16 93 C-11.05 93 -6.1 93 -1 93 C-1 71.55 -1 50.1 -1 28 C1.40059817 26.79970092 2.89360649 26.88540257 5.5703125 26.90234375 C6.46621094 26.90556641 7.36210938 26.90878906 8.28515625 26.91210938 C9.22230469 26.92048828 10.15945313 26.92886719 11.125 26.9375 C12.06988281 26.94201172 13.01476562 26.94652344 13.98828125 26.95117188 C16.3255477 26.96297625 18.66278169 26.98091201 21 27 C21 22.71 21 18.42 21 14 C14.07 14 7.14 14 0 14 C-1.17635297 11.64729407 -1.13359359 10.179248 -1.125 7.5625 C-1.12757813 6.78003906 -1.13015625 5.99757813 -1.1328125 5.19140625 C-1 3 -1 3 0 0 Z " fill="#020202" transform="translate(555,456)"/>
<path d="M0 0 C7.59 0 15.18 0 23 0 C23 5.61 23 11.22 23 17 C15.74 17 8.48 17 1 17 C1 30.86 1 44.72 1 59 C-1.25 54.5 -1.25 54.5 -1.22705078 50.96582031 C-1.22689972 50.18531311 -1.22674866 49.40480591 -1.22659302 48.60064697 C-1.21110916 47.3519986 -1.21110916 47.3519986 -1.1953125 46.078125 C-1.1924826 45.21813904 -1.18965271 44.35815308 -1.18673706 43.47210693 C-1.1755615 40.73126179 -1.15046179 37.99074602 -1.125 35.25 C-1.1149668 33.38932764 -1.10584155 31.52865015 -1.09765625 29.66796875 C-1.07563076 25.11185268 -1.04111897 20.55598214 -1 16 C1.40059817 14.79970092 2.89360649 14.88540257 5.5703125 14.90234375 C6.46621094 14.90556641 7.36210938 14.90878906 8.28515625 14.91210938 C9.22230469 14.92048828 10.15945313 14.92886719 11.125 14.9375 C12.06988281 14.94201172 13.01476562 14.94652344 13.98828125 14.95117188 C16.3255477 14.96297625 18.66278169 14.98091201 21 15 C21 10.38 21 5.76 21 1 C20.01 1.33 19.02 1.66 18 2 C16.66474283 2.07973476 15.32587917 2.10771338 13.98828125 2.09765625 C12.85229492 2.09282227 12.85229492 2.09282227 11.69335938 2.08789062 C10.90767578 2.07951172 10.12199219 2.07113281 9.3125 2.0625 C8.51521484 2.05798828 7.71792969 2.05347656 6.89648438 2.04882812 C4.93095743 2.0370585 2.96546915 2.01912348 1 2 C0.67 1.34 0.34 0.68 0 0 Z " fill="#050506" transform="translate(617,468)"/>
<path d="M0 0 C6.6 0 13.2 0 20 0 C20 7.92 20 15.84 20 24 C19.34 24 18.68 24 18 24 C18 16.74 18 9.48 18 2 C12.39 2 6.78 2 1 2 C1 9.26 1 16.52 1 24 C0.67 24 0.34 24 0 24 C0 16.08 0 8.16 0 0 Z " fill="#1D1F23" transform="translate(598,444)"/>
<path d="M0 0 C0.33 0 0.66 0 1 0 C1.33 4.95 1.66 9.9 2 15 C6.62 15 11.24 15 16 15 C17.18776537 17.37553074 17.0882153 18.71321373 17.02172852 21.35791016 C16.99158409 22.70908432 16.99158409 22.70908432 16.96083069 24.08755493 C16.92027809 25.54855118 16.92027809 25.54855118 16.87890625 27.0390625 C16.85529526 28.03505463 16.83168427 29.03104675 16.80735779 30.05722046 C16.73062353 33.24662181 16.64664116 36.43578628 16.5625 39.625 C16.50928909 41.78384247 16.45654864 43.9426966 16.40429688 46.1015625 C16.27499524 51.40118907 16.1397381 56.70063891 16 62 C15.67 62 15.34 62 15 62 C15 47.15 15 32.3 15 17 C10.05 17 5.1 17 0 17 C0 11.39 0 5.78 0 0 Z " fill="#3F454A" transform="translate(583,468)"/>
<path d="M0 0 C2 3.75 2 3.75 2 6 C2.60062256 5.99476318 3.20124512 5.98952637 3.82006836 5.98413086 C6.52586838 5.96341986 9.23165177 5.95035875 11.9375 5.9375 C13.35579102 5.92493164 13.35579102 5.92493164 14.80273438 5.91210938 C16.15141602 5.90727539 16.15141602 5.90727539 17.52734375 5.90234375 C18.77632446 5.89448853 18.77632446 5.89448853 20.05053711 5.88647461 C22 6 22 6 23 7 C23.07325168 9.86267567 23.09238205 12.700719 23.0625 15.5625 C23.05798828 16.36880859 23.05347656 17.17511719 23.04882812 18.00585938 C23.03700518 20.00393756 23.01906914 22.00197783 23 24 C22.67 24 22.34 24 22 24 C22 18.72 22 13.44 22 8 C14.74 8 7.48 8 0 8 C0 5.36 0 2.72 0 0 Z " fill="#F4FDFE" transform="translate(556,460)"/>
<path d="M0 0 C0.92425781 -0.00257813 1.84851563 -0.00515625 2.80078125 -0.0078125 C3.76371094 -0.00007813 4.72664062 0.00765625 5.71875 0.015625 C7.16314453 0.00402344 7.16314453 0.00402344 8.63671875 -0.0078125 C9.56097656 -0.00523437 10.48523438 -0.00265625 11.4375 0 C12.28248047 0.00225586 13.12746094 0.00451172 13.99804688 0.00683594 C16.21875 0.265625 16.21875 0.265625 19.21875 2.265625 C19.21875 2.925625 19.21875 3.585625 19.21875 4.265625 C18.27902344 4.11222656 17.33929687 3.95882813 16.37109375 3.80078125 C11.52579669 3.10859596 6.6669711 2.91768871 1.78125 2.703125 C0.85892578 2.65994141 -0.06339844 2.61675781 -1.01367188 2.57226562 C-3.26941163 2.46707569 -5.52524499 2.36493393 -7.78125 2.265625 C-4.57310112 0.12685908 -3.6935427 0.00986072 0 0 Z " fill="#E3EEF2" transform="translate(846.78125,463.734375)"/>
<path d="M0 0 C7.26 0 14.52 0 22 0 C21.34 1.65 20.68 3.3 20 5 C19.67 4.01 19.34 3.02 19 2 C16.20826945 1.97309896 13.41679652 1.95320947 10.625 1.9375 C9.8309375 1.92912109 9.036875 1.92074219 8.21875 1.91210938 C3.97607778 1.76959849 3.97607778 1.76959849 0 3 C0 2.01 0 1.02 0 0 Z " fill="#050506" transform="translate(789,468)"/>
<path d="M0 0 C7.26 0 14.52 0 22 0 C21.67 0.66 21.34 1.32 21 2 C15.06 2 9.12 2 3 2 C2.67 2.99 2.34 3.98 2 5 C1.34 3.35 0.68 1.7 0 0 Z " fill="#070707" transform="translate(723,468)"/>
<path d="M0 0 C0 4.07587476 -1.25991672 4.98590839 -4 8 C-8.1639575 11.86839475 -12.52161648 15.50126288 -17 19 C-15.60652624 15.84795019 -13.97514921 13.73828227 -11.5234375 11.328125 C-10.51796875 10.33232422 -10.51796875 10.33232422 -9.4921875 9.31640625 C-8.79351562 8.63449219 -8.09484375 7.95257813 -7.375 7.25 C-6.66859375 6.55261719 -5.9621875 5.85523438 -5.234375 5.13671875 C-3.49401297 3.41987512 -1.74915019 1.70788168 0 0 Z " fill="#0D7CFD" transform="translate(255,504)"/>
<path d="M0 0 C0.33 0 0.66 0 1 0 C1.054138 2.24973447 1.09285491 4.49984383 1.125 6.75 C1.14820313 8.00296875 1.17140625 9.2559375 1.1953125 10.546875 C1.01537302 13.72820492 0.68998582 15.36521896 -1 18 C-1.66 18 -2.32 18 -3 18 C-2.8863485 15.37405216 -2.75960946 12.74988453 -2.625 10.125 C-2.5940625 9.37863281 -2.563125 8.63226563 -2.53125 7.86328125 C-2.2265625 2.2265625 -2.2265625 2.2265625 0 0 Z " fill="#D3E2E9" transform="translate(521,503)"/>
<path d="M0 0 C0.66 0.33 1.32 0.66 2 1 C2.16682272 5.92127034 2.24828052 9.50343896 0 14 C-0.85380428 11.03878992 -1.13517764 8.3912356 -1.125 5.3125 C-1.12757813 4.52488281 -1.13015625 3.73726562 -1.1328125 2.92578125 C-1 1 -1 1 0 0 Z " fill="#1C1E20" transform="translate(718,521)"/>
<path d="M0 0 C0.99 0 1.98 0 3 0 C2.54803755 1.60597325 2.08817673 3.20972508 1.625 4.8125 C1.36976563 5.70582031 1.11453125 6.59914063 0.8515625 7.51953125 C0 10 0 10 -2 13 C-3.35068317 10.29863366 -2.73985317 8.86436954 -2.125 5.9375 C-1.94195313 5.03902344 -1.75890625 4.14054687 -1.5703125 3.21484375 C-1 1 -1 1 0 0 Z " fill="#E3EDF1" transform="translate(778,490)"/>
<path d="M0 0 C3.3 0.33 6.6 0.66 10 1 C10 1.99 10 2.98 10 4 C7.03 3.67 4.06 3.34 1 3 C0.67 2.01 0.34 1.02 0 0 Z " fill="#1A1C1D" transform="translate(463,549)"/>
<path d="M0 0 C0.33 0.66 0.66 1.32 1 2 C1.66 2 2.32 2 3 2 C3.125 7.75 3.125 7.75 2 10 C1.01 9.67 0.02 9.34 -1 9 C-0.67 6.03 -0.34 3.06 0 0 Z " fill="#191A1B" transform="translate(699,523)"/>
<path d="M0 0 C2.97 0.495 2.97 0.495 6 1 C6.33 1.99 6.66 2.98 7 4 C4.69 3.67 2.38 3.34 0 3 C0 2.01 0 1.02 0 0 Z " fill="#D8E3E9" transform="translate(859,464)"/>
<path d="M0 0 C3.35915158 1.43963639 5.71624938 3.12416589 8 6 C7.60546875 8.1328125 7.60546875 8.1328125 7 10 C6.01886757 8.70982586 5.04015801 7.41780894 4.0625 6.125 C3.24458984 5.04605469 3.24458984 5.04605469 2.41015625 3.9453125 C1 2 1 2 0 0 Z " fill="#EBF2F4" transform="translate(874,472)"/>
<path d="M0 0 C0.66 0.66 1.32 1.32 2 2 C0.35 2.66 -1.3 3.32 -3 4 C-3 4.66 -3 5.32 -3 6 C-4.65 5.67 -6.3 5.34 -8 5 C-7.4225 4.731875 -6.845 4.46375 -6.25 4.1875 C-3.9674132 2.98280141 -2.0262058 1.59201885 0 0 Z " fill="#191B1D" transform="translate(490,529)"/>
</svg>
